<?xml version="1.0" encoding="utf-8"?>
<!-- Generator: Adobe Illustrator 28.1.0, SVG Export Plug-In . SVG Version: 6.00 Build 0)  -->
<svg version="1.1" id="Layer_1" xmlns="http://www.w3.org/2000/svg" xmlns:xlink="http://www.w3.org/1999/xlink" x="0px" y="0px"
	 viewBox="0 0 556.8 545.4" style="enable-background:new 0 0 556.8 545.4;" xml:space="preserve">
<style type="text/css">
	.st0{fill:#44AABB;}
	.st1{fill:#FFFFFF;stroke:#FFFFFF;stroke-width:15;stroke-miterlimit:10;}
	.st2{fill:#FFFFFF;stroke:#FFFFFF;stroke-width:14;stroke-miterlimit:10;}
	.st3{fill:none;}
</style>
<path class="st0" d="M0,0v545.4h556.8V0H0z"/>
<path class="st1" d="M477.2,452.1h-36.5v-141c0-51.5-26.9-81.2-71.2-81.2c-30.6,0-59.8,14.6-79.4,47.9c2.3,9.6,3.2,20.5,3.2,31.5
	v142.8h-36.5v-141c0-51.5-27.4-81.2-71.2-81.2c-29.6,0-57,15.1-76.6,45.2v177H72.6V203.9h36.5v28.3c20.5-23.3,45.6-36.5,83-36.5
	c36.5,0,67.1,16.4,84.9,46.1c24.2-29.6,55.2-46.1,99.4-46.1c59.8,0,101.3,43.3,101.3,113.1v143.3H477.2z"/>
<rect x="72.1" y="87.1" class="st2" width="405.5" height="34.7"/>
<rect x="65.9" y="323.2" class="st3" width="730" height="100"/>
<rect x="65.9" y="143.2" class="st3" width="730" height="100"/>
</svg>
